<svg xmlns="http://www.w3.org/2000/svg" viewBox="0 0 360 96" width="360" height="96">
  <g transform="translate(6,6)" fill="#1E50A2"><path fill-rule="evenodd" d="M14 36 a36 11 0 0 1 72 0 C86 62 71 77 50 77 C29 77 14 62 14 36 Z M26 34 a24 7 0 1 0 48 0 a24 7 0 1 0 -48 0 Z" transform="scale(0.84)"></path><path d="M28 74 l-6 17 l9 0 l4 -13 z" transform="scale(0.84)"></path><path d="M45 76 l0 16 l10 0 l0 -16 z" transform="scale(0.84)"></path><path d="M72 74 l6 17 l-9 0 l-4 -13 z" transform="scale(0.84)"></path></g>
  <text x="104" y="44" font-family="&#39;Baloo 2&#39;,&#39;Trebuchet MS&#39;,sans-serif" font-weight="800" font-size="34" fill="#C4472A" letter-spacing="0.5">EL METATE</text>
  <text x="104" y="72" font-family="&#39;Hanken Grotesk&#39;,sans-serif" font-weight="600" font-size="14" fill="#2B1B10" letter-spacing="4">MEXICAN RESTAURANTS</text>
</svg>